<?xml version="1.0" encoding="UTF-8" standalone="no"?>
<svg
   xmlns:dc="http://purl.org/dc/elements/1.1/"
   xmlns:cc="http://creativecommons.org/ns#"
   xmlns:rdf="http://www.w3.org/1999/02/22-rdf-syntax-ns#"
   xmlns:svg="http://www.w3.org/2000/svg"
   xmlns="http://www.w3.org/2000/svg"
   xmlns:sodipodi="http://sodipodi.sourceforge.net/DTD/sodipodi-0.dtd"
   xmlns:inkscape="http://www.inkscape.org/namespaces/inkscape"
   width="448.5"
   height="400.5"
   viewBox="125.8 149.8 448.5 400.5"
   version="1.1"
   id="svg22"
   sodipodi:docname="rivian-logo.svg"
   style="fill:none"
   inkscape:version="0.92.4 (5da689c313, 2019-01-14)"
   inkscape:export-filename="C:\Users\suitedoalex\sites\svg\rivian-logo-0.png"
   inkscape:export-xdpi="561.73712"
   inkscape:export-ydpi="561.73712">
  <metadata
     id="metadata28">
    <rdf:RDF>
      <cc:Work
         rdf:about="">
        <dc:format>image/svg+xml</dc:format>
        <dc:type
           rdf:resource="http://purl.org/dc/dcmitype/StillImage" />
        <dc:title></dc:title>
      </cc:Work>
    </rdf:RDF>
  </metadata>
  <defs
     id="defs26" />
  <sodipodi:namedview
     pagecolor="#ffffff"
     bordercolor="#666666"
     borderopacity="1"
     objecttolerance="10"
     gridtolerance="10"
     guidetolerance="10"
     inkscape:pageopacity="0"
     inkscape:pageshadow="2"
     inkscape:window-width="25.0"
     inkscape:window-height="5.0"
     id="namedview24"
     showgrid="false"
     inkscape:zoom="0.39625"
     inkscape:cx="553.15671"
     inkscape:cy="431.12431"
     inkscape:window-x="-8"
     inkscape:window-y="-8"
     inkscape:window-maximized="1"
     inkscape:current-layer="svg22" />
  <path
     d="m 261.71242,812.65901 c 0,-10.89407 -7.38692,-21.51366 -23.27056,-21.51366 H 197.354 v 64.63263 h 13.85286 V 802.7773 h 25.21027 c 7.75888,0 11.44914,3.78805 11.44914,9.88171 0,6.18505 -3.69665,9.97309 -11.44914,9.97309 h -10.72405 c -4.85921,0 -7.58952,2.72999 -7.58952,7.5892 v 4.04944 h 7.69369 c 3.59887,0 6.27677,1.20186 8.49738,4.06223 l 13.66304,17.4514 h 16.98772 l -19.01884,-24.19153 c 10.15589,-2.3184 15.78587,-8.96713 15.78587,-18.93383 z"
     id="path2"
     inkscape:connector-curvature="0"
     style="fill:#151515;stroke-width:3.19558358"
     inkscape:export-xdpi="105.14512"
     inkscape:export-ydpi="105.14512" />
  <path
     d="m 311.51271,791.13873 h -13.85254 v 64.63253 h 13.85254 z"
     id="path4"
     inkscape:connector-curvature="0"
     style="fill:#151515;stroke-width:3.19558358"
     inkscape:export-xdpi="105.14512"
     inkscape:export-ydpi="105.14512" />
  <path
     d="m 418.26406,791.13873 h -14.77319 l -23.45238,50.04853 -23.45559,-50.04853 h -14.77222 l 30.83962,64.63893 h 14.77318 z"
     id="path6"
     inkscape:connector-curvature="0"
     style="fill:#151515;stroke-width:3.19558358"
     inkscape:export-xdpi="105.14512"
     inkscape:export-ydpi="105.14512" />
  <path
     d="m 462.66349,791.13873 h -13.85285 v 64.63253 h 13.85285 z"
     id="path8"
     inkscape:connector-curvature="0"
     style="fill:#151515;stroke-width:3.19558358"
     inkscape:export-xdpi="105.14512"
     inkscape:export-ydpi="105.14512" />
  <path
     d="m 539.49491,791.13873 h -14.77318 l -31.76091,64.63253 h 14.77319 l 3.97211,-8.30755 c 1.6585,-3.50748 4.24693,-5.0813 8.12637,-5.0813 h 24.00841 l -2.86324,-6.09366 c -1.75437,-3.78804 -4.61762,-5.53859 -8.86135,-5.53859 h -12.27743 l 12.27743,-25.48445 24.37271,50.50555 h 14.77638 z"
     id="path10"
     inkscape:connector-curvature="0"
     style="fill:#151515;stroke-width:3.19558358"
     inkscape:export-xdpi="105.14512"
     inkscape:export-ydpi="105.14512" />
  <path
     d="m 669.55836,791.13873 h -13.3895 v 48.0171 l -38.68893,-48.0171 h -15.87885 v 64.63893 h 13.38949 V 807.7605 l 38.68254,48.01716 h 15.88525 z"
     id="path12"
     inkscape:connector-curvature="0"
     style="fill:#151515;stroke-width:3.19558358"
     inkscape:export-xdpi="105.14512"
     inkscape:export-ydpi="105.14512" />
  <path
     d="m 161.70822,818.51747 c -7.43899,-7.67419 -47.68418,-49.18639 -55.22767,-55.17546 -2.6322,-2.10959 -6.02176,-3.65747 -10.273482,-3.65747 -4.258435,0 -7.647991,1.54788 -10.273482,3.65747 -7.543814,5.98907 -47.795321,47.50127 -55.23433,55.17546 -0.6074,0.69888 -0.05878,1.79592 0.855583,1.79592 3.716252,0 12.330875,0.0128 17.523155,0.0128 1.828736,0 2.370803,-0.31988 3.520286,-1.55433 1.149516,-1.23445 6.870825,-7.37381 6.870825,-7.37381 7.275641,-7.84388 25.021036,-25.16458 31.506473,-30.62462 2.435993,-2.0508 5.192184,-1.98548 5.23149,-1.98548 0.03899,0 2.795177,-0.0652 5.231492,1.98548 6.48543,5.46659 24.23051,22.78713 31.50622,30.62462 0,0 5.72137,6.13936 6.87082,7.37381 1.14945,1.23445 1.69174,1.55433 3.52026,1.55433 5.18579,0 13.80715,-0.0128 17.5233,-0.0128 0.91425,0.006 1.45655,-1.09704 0.84906,-1.79592 z"
     id="path14"
     style="fill:#f7ab00;fill-opacity:1;stroke-width:3.19558358"
     inkscape:connector-curvature="0"
     inkscape:export-xdpi="105.14512"
     inkscape:export-ydpi="105.14512" />
  <path
     d="m 30.698021,828.39885 c 7.438998,7.6742 47.684081,49.18643 55.227576,55.17527 2.632202,2.10972 6.021758,3.65767 10.273482,3.65767 4.258431,0 7.647991,-1.54795 10.273801,-3.65767 7.54349,-5.98884 47.78836,-47.50107 55.22768,-55.17527 0.60716,-0.69887 0.0585,-1.79591 -0.85578,-1.79591 -3.71615,0 -12.3308,-0.0128 -17.52298,-0.0128 -1.82884,0 -2.37081,0.31988 -3.52058,1.55434 -1.14945,1.23445 -6.8705,7.37381 -6.8705,7.37381 -7.27603,7.84387 -25.02111,25.16458 -31.50654,30.62455 -2.435996,2.05093 -5.192187,1.98542 -5.231492,1.98542 -0.03931,0 -2.795497,0.0655 -5.23149,-1.98542 -6.485437,-5.46668 -24.230513,-22.78739 -31.506409,-30.62455 0,0 -5.721309,-6.13936 -6.870793,-7.37381 -1.149483,-1.23446 -1.691582,-1.55434 -3.520287,-1.55434 -5.185761,0 -13.806934,0.0128 -17.523167,0.0128 -0.901302,0 -1.44992,1.09704 -0.842521,1.79591 z"
     id="path16"
     style="fill:#f7ab00;fill-opacity:1;stroke-width:3.19558358"
     inkscape:connector-curvature="0"
     inkscape:export-xdpi="105.14512"
     inkscape:export-ydpi="105.14512" />
  <path
     d="m 91.339874,837.18351 c -3.317655,-3.03037 -9.163016,-8.69965 -11.33793,-11.24014 -0.992868,-1.12325 -0.927678,-2.52771 -0.927678,-2.52771 0,0 -0.06519,-1.40414 0.927678,-2.52739 2.174914,-2.5408 8.020275,-8.20977 11.33793,-11.24014 1.358443,-1.26705 1.685032,-2.06403 1.685032,-3.61836 0,-4.8068 0,-13.81994 0,-17.23573 0,-0.69229 -0.809761,-1.12338 -1.436735,-0.5421 -7.399693,6.85117 -23.884431,23.18572 -29.409914,29.51425 -2.645113,2.80189 -2.396944,5.65618 -2.396944,5.65618 0,0 -0.24165,2.84759 2.396944,5.65587 5.531874,6.32885 22.016612,22.66339 29.409914,29.51441 0.659569,0.57488 1.436735,0.2157 1.436735,-0.60077 0,-3.42247 0,-12.3765 0,-17.18362 0,-1.56743 -0.326589,-2.36409 -1.685032,-3.62475 z"
     id="path18"
     style="fill:#f7ab00;fill-opacity:1;stroke-width:3.19558358"
     inkscape:connector-curvature="0"
     inkscape:export-xdpi="105.14512"
     inkscape:export-ydpi="105.14512" />
  <path
     d="m 101.07138,837.19662 c 3.31798,-3.03038 9.16334,-8.69934 11.33825,-11.24015 0.99255,-1.12325 0.92736,-2.52739 0.92736,-2.52739 0,0 0.0652,-1.40446 -0.92736,-2.5277 -2.17491,-2.54049 -8.02027,-8.20978 -11.33825,-11.24015 -1.358438,-1.26705 -1.685026,-2.06371 -1.685026,-3.61836 0,-4.8068 0,-13.76114 0,-17.18342 0,-0.81641 0.777166,-1.17562 1.437056,-0.60086 7.39969,6.85123 23.88443,23.18578 29.40959,29.51431 2.6386,2.80189 2.39701,5.65618 2.39701,5.65618 0,0 0.24159,2.84759 -2.39701,5.65587 -5.53187,6.32885 -22.01661,22.66308 -29.40959,29.51441 -0.65989,0.57488 -1.437056,0.21538 -1.437056,-0.60077 0,-3.42247 0,-12.37682 0,-17.18361 0.0067,-1.56105 0.326588,-2.35132 1.685026,-3.61836 z"
     id="path20"
     style="fill:#f7ab00;fill-opacity:1;stroke-width:3.19558358"
     inkscape:connector-curvature="0"
     inkscape:export-xdpi="105.14512"
     inkscape:export-ydpi="105.14512" />
  <path
     inkscape:connector-curvature="0"
     style="fill:#000000;fill-opacity:1;stroke-width:3.03494859"
     d="m 186.88941,509.29311 c 0,-10.34646 -7.0156,-20.43228 -22.10081,-20.43228 h -39.02246 v 61.38378 h 13.15649 v -50.3365 h 23.94298 c 7.36885,0 10.87364,3.59761 10.87364,9.385 0,5.87414 -3.5108,9.47176 -10.87364,9.47176 h -10.18494 c -4.61499,0 -7.20803,2.59273 -7.20803,7.20774 v 3.84585 h 7.30696 c 3.41795,0 5.96126,1.14145 8.0702,3.85802 l 12.97628,16.57414 h 16.13377 l -18.06279,-22.97548 c 9.64537,-2.20185 14.99235,-8.51637 14.99235,-17.98203 z"
     id="path2-4"
     inkscape:export-xdpi="149.84355"
     inkscape:export-ydpi="149.84355" />
  <path
     inkscape:connector-curvature="0"
     style="fill:#000000;fill-opacity:1;stroke-width:3.03494859"
     d="m 234.18632,488.8546 h -13.15621 v 61.38359 h 13.15621 z"
     id="path4-5"
     inkscape:export-xdpi="149.84355"
     inkscape:export-ydpi="149.84355" />
  <path
     inkscape:connector-curvature="0"
     style="fill:#000000;fill-opacity:1;stroke-width:3.03494859"
     d="m 335.57156,488.8546 h -14.03061 l -22.27347,47.5327 -22.27651,-47.5327 h -14.02968 l 29.2894,61.38967 h 14.03056 z"
     id="path6-4"
     inkscape:export-xdpi="149.84355"
     inkscape:export-ydpi="149.84355" />
  <path
     inkscape:connector-curvature="0"
     style="fill:#000000;fill-opacity:1;stroke-width:3.03494859"
     d="m 377.73914,488.8546 h -13.15656 v 61.38359 h 13.15656 z"
     id="path8-0"
     inkscape:export-xdpi="149.84355"
     inkscape:export-ydpi="149.84355" />
  <path
     inkscape:connector-curvature="0"
     style="fill:#000000;fill-opacity:1;stroke-width:3.03494859"
     d="m 450.70844,488.8546 h -14.03061 l -30.16436,61.38359 h 14.03055 l 3.77245,-7.88995 c 1.57512,-3.3312 4.03346,-4.82589 7.71789,-4.82589 h 22.80153 l -2.7193,-5.78738 c -1.66618,-3.5976 -4.38544,-5.26014 -8.41593,-5.26014 h -11.66024 l 11.66024,-24.20338 23.14757,47.96674 h 14.03361 z"
     id="path10-1"
     inkscape:export-xdpi="149.84355"
     inkscape:export-ydpi="149.84355" />
  <path
     inkscape:connector-curvature="0"
     style="fill:#000000;fill-opacity:1;stroke-width:3.03494859"
     d="m 574.23386,488.8546 h -12.71641 v 45.60335 L 524.77326,488.8546 h -15.08068 v 61.38967 h 12.71647 v -45.60348 l 36.73801,45.60348 h 15.0868 z"
     id="path12-0"
     inkscape:export-xdpi="149.84355"
     inkscape:export-ydpi="149.84355" />
  <path
     inkscape:connector-curvature="0"
     style="fill:#f7ab00;fill-opacity:1;stroke-width:7.34438229"
     d="M 500.54864,284.96464 C 483.45168,267.32705 390.95652,171.91995 373.61935,158.15528 c -6.04956,-4.84845 -13.83975,-8.4059 -23.61147,-8.4059 -9.78713,0 -17.57729,3.55745 -23.61146,8.4059 -17.33791,13.76467 -109.84756,109.17177 -126.94462,126.80936 -1.39594,1.60617 -0.13516,4.12753 1.96641,4.12753 8.54106,0 28.33998,0.0294 40.27334,0.0294 4.20298,0 5.44881,-0.73518 8.09063,-3.57229 2.64194,-2.83713 15.79114,-16.94719 15.79114,-16.94719 16.72156,-18.0275 57.50564,-57.83552 72.41108,-70.38429 5.59864,-4.71335 11.93316,-4.56321 12.02348,-4.56321 0.0895,0 6.42414,-0.14988 12.02352,4.56321 14.90539,12.5638 55.68874,52.37147 72.41042,70.38429 0,0 13.14939,14.11006 15.7912,16.94719 2.64176,2.83711 3.88811,3.57229 8.09056,3.57229 11.91848,0 31.73285,-0.0294 40.27369,-0.0294 2.1012,0.0123 3.34754,-2.52136 1.95137,-4.12753 z"
     id="path14-5"
     inkscape:export-xdpi="149.84355"
     inkscape:export-ydpi="149.84355" />
  <path
     inkscape:connector-curvature="0"
     style="fill:#f7ab00;fill-opacity:1;stroke-width:7.34438229"
     d="m 199.449,307.67492 c 17.09699,17.63751 109.59193,113.04472 126.92907,126.80882 6.04959,4.84877 13.83975,8.4064 23.61145,8.4064 9.78713,0 17.57729,-3.55763 23.61219,-8.4064 17.33715,-13.7641 109.83158,-109.17131 126.9293,-126.80882 1.3954,-1.60623 0.13442,-4.12755 -1.96685,-4.12755 -8.54077,0 -28.33971,-0.0295 -40.2729,-0.0295 -4.20318,0 -5.44881,0.73515 -8.09131,3.57232 -2.64178,2.8371 -15.7904,16.94716 -15.7904,16.94716 -16.72243,18.02752 -57.50581,57.83553 -72.41124,70.38415 -5.5986,4.71361 -11.93314,4.56306 -12.02347,4.56306 -0.0905,0 -6.42486,0.15061 -12.02348,-4.56306 -14.90543,-12.56403 -55.68879,-52.37206 -72.41093,-70.38416 0,0 -13.14923,-14.11006 -15.79106,-16.94716 -2.64186,-2.83717 -3.88776,-3.57232 -8.09067,-3.57232 -11.9184,0 -31.73232,0.0295 -40.27334,0.0295 -2.07151,0 -3.33237,2.52133 -1.93636,4.12756 z"
     id="path16-0"
     inkscape:export-xdpi="149.84355"
     inkscape:export-ydpi="149.84355" />
  <path
     inkscape:connector-curvature="0"
     style="fill:#f7ab00;fill-opacity:1;stroke-width:7.34438229"
     d="m 338.82163,327.86459 c -7.62492,-6.96464 -21.05925,-19.99432 -26.05786,-25.8331 -2.2819,-2.58157 -2.13204,-5.80943 -2.13204,-5.80943 0,0 -0.14988,-3.2271 2.13204,-5.80865 4.99861,-5.83952 18.43294,-18.86846 26.05786,-25.83315 3.12212,-2.91204 3.8727,-4.74374 3.8727,-8.31606 0,-11.04742 0,-31.76223 0,-39.61273 0,-1.59104 -1.86105,-2.58181 -3.30201,-1.2459 -17.00664,15.74602 -54.8934,53.28755 -67.59255,67.83238 -6.07927,6.43955 -5.5089,12.99956 -5.5089,12.99956 0,0 -0.55524,6.54455 5.5089,12.99882 12.71387,14.54552 50.6006,52.08708 67.59255,67.83272 1.51587,1.32125 3.30201,0.49573 3.30201,-1.38075 0,-7.86586 0,-28.4448 0,-39.49294 0,-3.60243 -0.75058,-5.43341 -3.8727,-8.33077 z"
     id="path18-4"
     inkscape:export-xdpi="149.84355"
     inkscape:export-ydpi="149.84355" />
  <path
     inkscape:connector-curvature="0"
     style="fill:#f7ab00;fill-opacity:1;stroke-width:7.34438229"
     d="m 361.18748,327.89474 c 7.6257,-6.96464 21.06006,-19.99363 26.05863,-25.83314 2.28116,-2.58155 2.13134,-5.80869 2.13134,-5.80869 0,0 0.14987,-3.22785 -2.13134,-5.80942 -4.99857,-5.83877 -18.43293,-18.8684 -26.05863,-25.83311 -3.12206,-2.91205 -3.87264,-4.743 -3.87264,-8.31604 0,-11.04744 0,-31.62714 0,-39.49253 0,-1.87634 1.78615,-2.70188 3.30274,-1.38098 17.00665,15.74616 54.89338,53.28771 67.5918,67.83253 6.0643,6.43957 5.50906,12.99955 5.50906,12.99955 0,0 0.55524,6.54458 -5.50906,12.99882 -12.71382,14.54558 -50.60058,52.08638 -67.5918,67.83272 -1.51659,1.32126 -3.30274,0.49503 -3.30274,-1.38075 0,-7.86581 0,-28.44548 0,-39.49295 0.0123,-3.5877 0.75058,-5.40399 3.87264,-8.31601 z"
     id="path20-9"
     inkscape:export-xdpi="149.84355"
     inkscape:export-ydpi="149.84355" />
</svg>
