<svg xmlns="http://www.w3.org/2000/svg" xml:space="preserve" width="1620.9" height="323.3" x="0px" y="0px" viewBox="-0.9 128.0 1620.9 323.3"><path fill="#000" d="M1620 207.729h-33.939v121.71l-98.066-121.71h-40.249v163.846h33.939v-121.71l98.05 121.71H1620V207.729zm-329.678 0h-37.447l-80.506 163.83h37.447l10.068-21.061c4.203-8.886 10.765-12.879 20.598-12.879h60.855l-7.258-15.446c-4.446-9.599-11.704-14.037-22.461-14.037h-31.12l31.12-64.598 61.778 128.021h37.454l-80.528-163.83zm-194.749 0h-35.113v163.83h35.113v-163.83zm-112.541 0h-37.446L886.14 334.59l-59.454-126.861H789.24l78.174 163.846h37.446l78.172-163.846zm-270.589 0H677.33v163.83h35.113v-163.83zm-126.23 54.545c0-27.613-18.727-54.529-58.984-54.529h-104.15v163.83h35.113V237.229h63.901c19.667 0 29.022 9.606 29.022 25.045 0 15.682-9.372 25.28-29.022 25.28H494.91c-12.313 0-19.237 6.926-19.237 19.237v10.263h19.505c9.12 0 15.908 3.054 21.537 10.303l34.628 44.227h43.06L546.2 310.267c25.741-5.873 40.013-22.73 40.013-47.993z"/><path fill="#FFB100" d="M179.026 324.473c8.408-7.679 23.23-22.048 28.739-28.487 2.511-2.851 2.349-6.407 2.349-6.407s.162-3.563-2.349-6.406c-5.508-6.439-20.331-20.817-28.739-28.496-3.443-3.208-4.269-5.225-4.269-9.169v-43.554c0-2.074 1.968-2.981 3.645-1.523 18.751 17.366 60.54 58.766 74.544 74.812 6.683 7.104 6.075 14.337 6.075 14.337s.608 7.209-6.075 14.337c-14.021 16.038-55.809 57.445-74.552 74.812-1.669 1.458-3.645.543-3.645-1.522v-43.562c.024-3.955.834-5.956 4.277-9.172zm-24.664-.032c-8.408-7.679-23.231-22.048-28.739-28.487-2.52-2.851-2.349-6.407-2.349-6.407s-.17-3.563 2.349-6.407c5.508-6.439 20.331-20.816 28.739-28.495 3.442-3.208 4.269-5.232 4.269-9.17v-43.691c0-1.749-2.049-2.843-3.645-1.377-18.751 17.375-60.54 58.774-74.544 74.82-6.707 7.096-6.075 14.337-6.075 14.337s-.616 7.209 6.075 14.337c14.021 16.038 55.809 57.445 74.544 74.812 1.677 1.458 3.645.543 3.645-1.523v-43.562c-.001-3.971-.827-5.996-4.269-9.187zM.648 302.166c18.857 19.456 120.868 124.683 139.984 139.862 6.666 5.346 15.26 9.274 26.042 9.274 10.789 0 19.383-3.929 26.042-9.274 19.116-15.18 121.127-120.406 139.984-139.854 1.539-1.773.146-4.552-2.171-4.552-9.42 0-31.258-.032-44.42-.032-4.633 0-6.011.81-8.918 3.936l-17.415 18.695c-18.444 19.877-63.423 63.787-79.866 77.622-6.172 5.2-13.163 5.03-13.26 5.03s-7.088.162-13.26-5.022c-16.443-13.867-61.422-57.769-79.866-77.63l-17.415-18.695c-2.916-3.134-4.285-3.936-8.918-3.936-13.146 0-34.992.032-44.42.032-2.284 0-3.669 2.778-2.13 4.552l.007-.008zm332.076-25.037c-18.857-19.456-120.868-124.675-139.984-139.854-6.682-5.346-15.269-9.274-26.042-9.274-10.797 0-19.383 3.929-26.042 9.274C121.541 152.454 19.505 257.681.648 277.121c-1.539 1.766-.146 4.552 2.171 4.552 9.42 0 31.25.032 44.412.032 4.642 0 6.01-.81 8.926-3.944l17.415-18.687c18.444-19.886 63.423-63.788 79.866-77.623 6.172-5.2 13.154-5.038 13.251-5.038.105 0 7.087-.162 13.268 5.038 16.435 13.852 61.415 57.754 79.858 77.623l17.415 18.687c2.916 3.127 4.293 3.944 8.926 3.944 13.138 0 34.992-.032 44.413-.032 2.316.017 3.693-2.786 2.154-4.552v.008z"/></svg>
